<?xml version="1.0" standalone="no"?>
<!DOCTYPE svg PUBLIC "-//W3C//DTD SVG 20010904//EN"
 "http://www.w3.org/TR/2001/REC-SVG-20010904/DTD/svg10.dtd">
<svg version="1.0" xmlns="http://www.w3.org/2000/svg"
 width="280.000000pt" height="280.000000pt" viewBox="0 0 280.000000 280.000000"
 preserveAspectRatio="xMidYMid meet">
<metadata>
Created by potrace 1.11, written by Peter Selinger 2001-2013
</metadata>
<g transform="translate(0.000000,280.000000) scale(0.100000,-0.100000)"
fill="#000000" stroke="none">
<path d="M844 2085 c-26 -25 -51 -45 -56 -45 -5 0 -29 -19 -53 -41 -44 -41
-54 -63 -69 -151 -5 -29 -13 -38 -36 -46 -76 -27 -36 -183 60 -232 44 -22 72
-25 101 -9 23 12 21 31 -13 137 -23 71 -22 182 1 204 13 13 11 0 -7 -52 -4
-12 -1 -11 15 3 24 21 43 22 43 2 0 -17 -36 -39 -50 -30 -11 7 -13 -28 -4 -74
l7 -32 21 23 c20 21 21 21 25 3 2 -10 -5 -26 -16 -35 -20 -16 -19 -27 13 -128
7 -24 11 -49 8 -57 -3 -7 -47 -38 -97 -68 -94 -56 -167 -124 -205 -187 -16
-27 -52 -129 -52 -147 0 -17 241 57 349 108 144 67 225 144 306 292 l37 67
-64 -3 c-61 -2 -63 -1 -66 24 -3 23 5 32 56 63 33 20 62 42 65 50 3 7 -3 26
-14 42 -11 18 -19 47 -19 74 0 39 -4 49 -34 72 -19 16 -52 60 -72 99 -35 66
-88 119 -120 119 -7 0 -33 -20 -60 -45z m-18 -142 c-32 -29 -32 -31 -1 -25 14
2 25 0 25 -5 0 -13 -22 -33 -36 -33 -15 0 -26 42 -14 54 6 6 10 18 10 28 0 9
8 21 18 27 29 16 28 -18 -2 -46z m-48 -16 c-9 -18 -11 -19 -20 -3 -5 9 -6 26
-2 38 6 21 7 21 20 3 10 -13 11 -23 2 -38z m-28 -33 c0 -26 -17 -33 -26 -9 -8
20 3 48 16 40 5 -3 10 -17 10 -31z m-12 -58 c3 -20 0 -27 -10 -24 -7 3 -14 17
-16 32 -3 20 0 27 10 24 7 -3 14 -17 16 -32z m92 -41 c0 -15 -38 -41 -47 -32
-2 3 0 15 7 26 12 24 40 28 40 6z m-92 -7 c18 -18 15 -28 -8 -28 -11 0 -20 2
-20 4 0 2 -3 11 -6 20 -7 19 16 22 34 4z m20 -76 c3 -21 1 -22 -16 -13 -11 6
-22 18 -26 26 -4 13 -1 16 17 13 14 -2 23 -11 25 -26z"/>
<path d="M1900 1930 c-115 -74 -125 -78 -142 -64 -26 24 -54 13 -180 -75 -128
-90 -255 -161 -287 -161 -49 0 -79 -27 -96 -87 -26 -90 -75 -173 -140 -238
-102 -102 -235 -158 -495 -210 -155 -30 -224 -50 -240 -70 -19 -22 80 -29 355
-22 347 9 498 35 599 104 46 32 92 100 107 158 23 87 84 147 164 160 66 12
121 50 166 117 26 37 53 65 71 72 27 10 29 14 27 59 l-3 48 113 101 c92 83
116 100 130 91 9 -5 17 -20 19 -31 2 -12 19 -31 37 -42 19 -12 37 -30 40 -40
3 -11 12 -19 18 -17 9 1 13 -31 15 -115 1 -65 1 -118 -2 -118 -3 0 -16 4 -30
10 -18 6 -48 4 -101 -7 -73 -16 -76 -18 -72 -42 3 -15 -13 -76 -39 -150 -24
-69 -44 -129 -44 -133 0 -18 67 -48 105 -48 36 0 105 30 105 46 0 3 -20 61
-45 130 -25 68 -45 128 -45 134 0 6 65 10 181 10 l180 0 -7 -22 c-4 -13 -26
-74 -49 -135 l-43 -113 30 -25 c41 -35 114 -35 156 0 l29 24 -47 133 c-33 92
-45 137 -38 145 16 20 2 29 -76 47 -56 14 -79 15 -94 7 -12 -6 -23 -11 -26
-11 -3 0 -6 53 -6 119 0 110 1 119 20 124 16 4 20 14 20 49 0 38 -5 49 -37 80
-41 39 -131 88 -161 88 -10 0 -74 -36 -142 -80z m287 -52 c29 -27 29 -33 -1
-34 -16 -1 -27 6 -35 23 -6 13 -11 26 -11 28 0 12 26 3 47 -17z m21 -65 c-2
-10 -10 -18 -18 -18 -8 0 -16 8 -18 18 -2 12 3 17 18 17 15 0 20 -5 18 -17z
m-173 -443 c21 -58 40 -111 42 -117 4 -10 -16 -13 -81 -13 -47 0 -86 2 -86 4
0 10 83 237 85 234 1 -2 20 -50 40 -108z m391 -12 l40 -113 -79 -3 c-44 -2
-82 -1 -85 2 -6 6 70 226 78 226 3 0 24 -51 46 -112z"/>
<path d="M222 797 c-29 -30 -28 -62 3 -92 29 -30 65 -32 96 -5 27 22 22 25
-15 9 -55 -26 -104 19 -76 71 12 22 44 24 95 6 17 -7 17 -5 -4 13 -31 28 -72
27 -99 -2z"/>
<path d="M390 750 c0 -40 4 -70 10 -70 6 0 10 14 10 30 0 29 2 30 45 30 44 0
45 -1 45 -31 0 -17 4 -28 10 -24 6 3 10 33 10 65 0 32 -4 62 -10 65 -6 4 -10
-7 -10 -24 0 -30 -1 -31 -45 -31 -43 0 -45 1 -45 30 0 17 -4 30 -10 30 -6 0
-10 -30 -10 -70z"/>
<path d="M594 754 c-20 -36 -33 -68 -29 -72 4 -4 9 -2 12 3 2 6 16 31 31 57
l28 47 29 -54 c26 -48 45 -68 45 -48 0 8 -70 133 -75 133 -2 0 -21 -29 -41
-66z"/>
<path d="M775 750 c20 -39 40 -68 46 -65 9 6 69 118 69 130 0 20 -20 -4 -44
-52 l-28 -58 -29 58 c-16 31 -34 57 -39 57 -6 0 6 -32 25 -70z"/>
<path d="M940 750 l0 -70 60 0 c33 0 60 4 60 10 0 6 -22 10 -50 10 -43 0 -50
3 -50 20 0 16 7 20 35 20 19 0 35 5 35 10 0 6 -16 10 -35 10 -28 0 -35 4 -35
20 0 17 7 20 50 20 28 0 50 5 50 10 0 6 -27 10 -60 10 l-60 0 0 -70z"/>
<path d="M1130 810 c0 -5 16 -10 35 -10 19 0 35 -3 35 -6 0 -3 -18 -28 -40
-54 -22 -26 -40 -51 -40 -54 0 -3 27 -6 60 -6 33 0 60 4 60 10 0 6 -18 10 -40
10 -22 0 -40 3 -40 6 0 3 18 28 40 54 22 26 40 51 40 54 0 3 -25 6 -55 6 -30
0 -55 -4 -55 -10z"/>
<path d="M1340 815 c0 -12 65 -135 72 -135 4 0 24 32 43 70 19 39 31 70 25 70
-5 0 -23 -26 -39 -57 l-29 -58 -28 58 c-15 31 -32 57 -36 57 -4 0 -8 -2 -8 -5z"/>
<path d="M1534 806 c-3 -7 -4 -38 -2 -67 l3 -54 58 -3 c35 -2 57 1 57 8 0 5
-22 10 -50 10 -43 0 -50 3 -50 20 0 17 7 20 40 20 22 0 40 5 40 10 0 6 -18 10
-40 10 -33 0 -40 3 -40 20 0 17 7 20 50 20 28 0 50 5 50 10 0 16 -110 12 -116
-4z"/>
<path d="M1732 753 l-2 -73 50 0 c28 0 50 5 50 10 0 6 -20 10 -45 10 l-44 0
-4 63 -3 62 -2 -72z"/>
<path d="M1921 760 c-18 -33 -31 -66 -29 -72 3 -7 17 11 33 40 15 29 31 52 34
52 3 0 19 -23 34 -51 16 -28 31 -48 35 -45 7 7 -59 136 -69 136 -3 0 -21 -27
-38 -60z"/>
<path d="M2102 808 c-24 -24 -13 -46 33 -64 50 -19 54 -37 10 -42 -19 -3 -33
2 -42 14 -7 10 -16 15 -20 11 -11 -12 29 -47 54 -47 35 0 63 18 63 40 0 13
-14 24 -45 36 -25 9 -45 23 -45 30 0 20 57 18 68 -2 6 -10 12 -13 16 -6 18 30
-65 57 -92 30z"/>
<path d="M2279 802 c-45 -37 -16 -122 42 -122 23 0 69 21 69 32 0 11 -14 10
-27 -3 -19 -19 -66 -6 -82 23 -14 24 -14 28 3 47 21 23 65 28 84 9 6 -6 15 -8
19 -4 12 12 -27 36 -58 36 -15 0 -37 -8 -50 -18z"/>
<path d="M2455 795 c-14 -13 -25 -33 -25 -45 0 -29 44 -70 75 -70 32 0 75 41
75 73 0 31 -39 67 -74 67 -15 0 -37 -10 -51 -25z m95 -14 c14 -27 13 -47 -6
-65 -30 -31 -94 -7 -94 35 0 45 79 69 100 30z"/>
<path d="M497 556 c-22 -46 -21 -49 3 -34 17 11 22 10 30 -2 17 -28 19 -4 2
34 l-17 38 -18 -36z"/>
<path d="M590 551 c0 -34 3 -41 20 -41 17 0 20 6 17 37 -2 26 -8 39 -20 41
-14 3 -17 -4 -17 -37z m25 19 c3 -5 1 -10 -4 -10 -6 0 -11 5 -11 10 0 6 2 10
4 10 3 0 8 -4 11 -10z m5 -40 c0 -5 -4 -10 -10 -10 -5 0 -10 5 -10 10 0 6 5
10 10 10 6 0 10 -4 10 -10z"/>
<path d="M691 576 c-21 -25 -10 -61 18 -61 31 0 50 28 35 53 -15 23 -38 26
-53 8z m37 -42 c-19 -19 -38 -11 -38 16 0 24 21 31 40 14 12 -12 12 -16 -2
-30z"/>
<path d="M806 574 c-19 -19 -20 -25 -3 -48 17 -23 51 -17 55 9 4 20 3 20 -11
1 -16 -22 -37 -14 -37 15 0 17 11 24 33 20 4 0 7 4 7 9 0 15 -27 12 -44 -6z"/>
<path d="M1007 583 c-4 -3 -7 -21 -7 -40 0 -28 3 -33 25 -33 14 0 29 8 35 19
13 25 13 27 -6 45 -16 17 -36 21 -47 9z m41 -35 c-5 -32 -28 -35 -28 -4 0 17
5 26 16 26 10 0 14 -7 12 -22z"/>
<path d="M1122 578 c-28 -28 -1 -75 38 -63 22 7 27 44 8 63 -15 15 -31 15 -46
0z m48 -34 c0 -21 -21 -27 -38 -11 -13 13 -13 19 -2 32 10 12 16 13 26 4 8 -6
14 -17 14 -25z"/>
<path d="M1234 575 c-4 -8 0 -22 7 -31 10 -13 10 -17 -2 -25 -12 -7 -11 -9 3
-9 26 0 32 19 12 41 -16 18 -16 19 0 19 9 0 14 5 11 10 -9 15 -25 12 -31 -5z"/>
<path d="M1355 578 c-3 -7 -6 -24 -7 -38 -3 -21 1 -25 25 -26 20 -1 27 4 27
18 0 11 -4 16 -10 13 -6 -4 -9 3 -7 16 2 24 -20 38 -28 17z m20 -48 c3 -5 1
-10 -4 -10 -6 0 -11 5 -11 10 0 6 2 10 4 10 3 0 8 -4 11 -10z"/>
<path d="M1575 579 c-4 -5 0 -18 9 -28 20 -22 21 -35 1 -27 -8 3 -15 1 -15 -4
0 -17 30 -11 37 6 4 11 -1 22 -12 30 -17 13 -14 19 8 15 4 0 7 4 7 9 0 13 -27
13 -35 -1z"/>
<path d="M1666 574 c-19 -18 -19 -20 -6 -45 17 -31 70 -18 70 17 0 14 -27 44
-40 44 -5 0 -16 -7 -24 -16z m42 -26 c-2 -13 -10 -23 -18 -23 -8 0 -16 10 -18
23 -3 17 2 22 18 22 16 0 21 -5 18 -22z"/>
<path d="M1782 578 c-26 -26 -6 -69 33 -67 19 0 19 0 -1 9 -12 5 -25 14 -29
20 -9 15 13 40 31 33 8 -3 14 0 14 6 0 15 -33 14 -48 -1z"/>
<path d="M1883 550 c0 -25 2 -35 4 -22 2 12 2 32 0 45 -2 12 -4 2 -4 -23z"/>
<path d="M1946 556 c-20 -48 -20 -49 4 -34 17 11 22 10 30 -2 18 -28 18 -4 1
35 l-18 40 -17 -39z"/>
<path d="M2040 550 c0 -32 4 -40 18 -40 41 0 57 51 23 70 -33 17 -41 11 -41
-30z m45 10 c7 -12 -12 -40 -26 -40 -5 0 -9 11 -9 25 0 25 23 35 35 15z"/>
<path d="M2156 574 c-19 -18 -19 -20 -6 -45 6 -10 19 -19 30 -19 16 0 40 26
40 44 0 8 -31 36 -40 36 -5 0 -16 -7 -24 -16z m42 -26 c-2 -13 -10 -23 -18
-23 -8 0 -16 10 -18 23 -3 17 2 22 18 22 16 0 21 -5 18 -22z"/>
<path d="M2265 579 c-4 -5 0 -18 9 -28 20 -22 21 -35 1 -27 -8 3 -15 1 -15 -4
0 -17 30 -11 37 6 4 11 -1 22 -12 30 -17 13 -14 19 8 15 4 0 7 4 7 9 0 13 -27
13 -35 -1z"/>
<path d="M910 550 c-7 -17 -10 -33 -6 -37 3 -3 6 -1 6 5 0 7 9 12 20 12 11 0
20 -5 20 -12 0 -6 3 -8 6 -5 8 8 -15 67 -26 67 -4 0 -13 -14 -20 -30z"/>
<path d="M1480 550 c-7 -17 -10 -33 -6 -37 3 -3 6 -1 6 5 0 7 9 12 20 12 11 0
20 -5 20 -12 0 -6 3 -8 6 -5 8 8 -15 67 -26 67 -4 0 -13 -14 -20 -30z"/>
</g>
</svg>
