<?xml version="1.0" standalone="no"?>
<!DOCTYPE svg PUBLIC "-//W3C//DTD SVG 20010904//EN"
 "http://www.w3.org/TR/2001/REC-SVG-20010904/DTD/svg10.dtd">
<svg version="1.0" xmlns="http://www.w3.org/2000/svg"
 width="260.000000pt" height="260.000000pt" viewBox="0 0 260.000000 260.000000"
 preserveAspectRatio="xMidYMid meet">
<metadata>
Created by potrace 1.11, written by Peter Selinger 2001-2013
</metadata>
<g transform="translate(0.000000,260.000000) scale(0.100000,-0.100000)"
fill="#000000" stroke="none">
<path d="M361 2584 c-166 -45 -301 -180 -346 -347 -11 -43 -14 -209 -14 -938
-1 -975 -3 -929 61 -1051 60 -114 197 -213 327 -238 35 -7 367 -10 921 -10
837 0 869 1 939 21 124 34 231 118 290 229 63 118 61 87 61 1057 -1 767 -3
889 -16 935 -50 169 -180 298 -347 342 -79 22 -1797 21 -1876 0z"/>
</g>
</svg>
